<svg
      width="24"
      class="bg-gradient-to-tr from-primary via-primary/70 to-primary rounded-lg w-9 h-9 mr-2 border text-white"
      height="24"
      viewBox="0 0 24 24"
      fill="none"
      xmlns="http://www.w3.org/2000/svg"
    >
      <path
        d="M13.3339 10.3947L8.32636 20H10.559L14.0675 12.8788H14.3227L17.7992 20H20L15.0244 10.3947H13.3339Z"
        fill="white"
      />
      <path
        d="M19.3724 6.34323C19.3639 5.60973 18.6914 4.96237 17.8347 5.0017C17.0197 5.03912 16.3365 5.6454 16.3284 6.34323C16.3203 7.04897 17.0104 7.67381 17.8347 7.71159C18.7002 7.75126 19.381 7.08425 19.3724 6.34323Z"
        fill="white"
      />
      <path
        d="M8.044 6.37177C8.03551 5.63827 7.36304 4.99091 6.50634 5.03024C5.69129 5.06766 5.00808 5.67393 5.00007 6.37177C4.99197 7.0775 5.68206 7.70235 6.50634 7.74013C7.37183 7.77979 8.05258 7.11278 8.044 6.37177Z"
        fill="white"
      />
    </svg>